<svg width="272" height="73" viewBox="0 0 272 73" fill="none" xmlns="http://www.w3.org/2000/svg">
<path d="M34.0057 29.8182C33.7074 27.2992 32.4976 25.3438 30.3764 23.9517C28.2552 22.5597 25.6534 21.8636 22.571 21.8636C20.3172 21.8636 18.3452 22.2282 16.6548 22.9574C14.9811 23.6866 13.6719 24.6892 12.7273 25.9652C11.7992 27.2412 11.3352 28.6913 11.3352 30.3153C11.3352 31.6742 11.6584 32.8426 12.3047 33.8203C12.9676 34.7815 13.8127 35.5852 14.8402 36.2315C15.8677 36.8613 16.9448 37.3833 18.0717 37.7976C19.1986 38.1953 20.2344 38.5185 21.179 38.767L26.3494 40.1591C27.6752 40.5071 29.1501 40.9877 30.7741 41.6009C32.4148 42.214 33.9808 43.0509 35.4723 44.1115C36.9804 45.1555 38.2232 46.4979 39.201 48.1385C40.1787 49.7791 40.6676 51.7926 40.6676 54.179C40.6676 56.9299 39.9467 59.4157 38.505 61.6364C37.0798 63.857 34.9917 65.6219 32.2408 66.9311C29.5064 68.2403 26.1837 68.8949 22.2727 68.8949C18.6269 68.8949 15.4699 68.3066 12.8018 67.13C10.1503 65.9534 8.06226 64.3127 6.53764 62.2081C5.02959 60.1035 4.17614 57.6591 3.97727 54.875H10.3409C10.5066 56.7973 11.1529 58.3883 12.2798 59.6477C13.4233 60.8906 14.8651 61.8187 16.6051 62.4318C18.3617 63.0284 20.2509 63.3267 22.2727 63.3267C24.6259 63.3267 26.7389 62.9455 28.6115 62.1832C30.4841 61.4044 31.9673 60.3272 33.0611 58.9517C34.1548 57.5597 34.7017 55.9356 34.7017 54.0795C34.7017 52.3892 34.2294 51.0137 33.2848 49.9531C32.3402 48.8925 31.0973 48.0308 29.5561 47.3679C28.0149 46.705 26.3494 46.125 24.5597 45.6278L18.2955 43.8381C14.3182 42.6946 11.1695 41.0623 8.84943 38.9411C6.52936 36.8198 5.36932 34.044 5.36932 30.6136C5.36932 27.7633 6.13991 25.2775 7.68111 23.1562C9.23887 21.0185 11.3269 19.3613 13.9453 18.1847C16.5803 16.9915 19.5218 16.3949 22.7699 16.3949C26.0511 16.3949 28.9678 16.9832 31.5199 18.1598C34.072 19.3198 36.0938 20.9107 37.5852 22.9325C39.0933 24.9543 39.8887 27.2495 39.9716 29.8182H34.0057ZM50.8034 68V17.0909H56.9682V39.7614H84.1131V17.0909H90.2779V68H84.1131V45.2301H56.9682V68H50.8034Z" fill="#B3248B"/>
<path d="M155.165 68V17.0909H185.69V22.5597H161.33V39.7614H183.403V45.2301H161.33V68H155.165Z" fill="#B3248B"/>
<g filter="url(#filter0_d_104_6)">
<path d="M129 12C129 17.5228 124.523 22 119 22C113.477 22 109 17.5228 109 12C109 6.47715 113.477 2 119 2C124.523 2 129 6.47715 129 12Z" fill="#2488B3"/>
</g>
<path d="M118 30C118 62 132.667 70 140 70" stroke="#2488B3" stroke-width="6"/>
<circle r="2.5" transform="matrix(1 0 0 -1 123.5 5.5)" fill="#F5F5F5"/>
<path d="M224.5 8L204 28H244L261 8H224.5Z" fill="#2488B3"/>
<path d="M204 72V39H245V72H204Z" fill="#2488B3"/>
<path d="M272 12L255 33.1963V66L272 45.8131V12Z" fill="#2488B3"/>
<defs>
<filter id="filter0_d_104_6" x="105" y="2" width="28" height="28" filterUnits="userSpaceOnUse" color-interpolation-filters="sRGB">
<feFlood flood-opacity="0" result="BackgroundImageFix"/>
<feColorMatrix in="SourceAlpha" type="matrix" values="0 0 0 0 0 0 0 0 0 0 0 0 0 0 0 0 0 0 127 0" result="hardAlpha"/>
<feOffset dy="4"/>
<feGaussianBlur stdDeviation="2"/>
<feComposite in2="hardAlpha" operator="out"/>
<feColorMatrix type="matrix" values="0 0 0 0 0 0 0 0 0 0 0 0 0 0 0 0 0 0 0.25 0"/>
<feBlend mode="normal" in2="BackgroundImageFix" result="effect1_dropShadow_104_6"/>
<feBlend mode="normal" in="SourceGraphic" in2="effect1_dropShadow_104_6" result="shape"/>
</filter>
</defs>
</svg>
